<svg width="24" height="25" viewBox="0 0 24 25" fill="none" xmlns="http://www.w3.org/2000/svg">
<path d="M12 7.66882C12.2761 7.66882 12.5 7.44496 12.5 7.16882C12.5 6.89268 12.2761 6.66882 12 6.66882C11.7239 6.66882 11.5 6.89268 11.5 7.16882C11.5 7.44496 11.7239 7.66882 12 7.66882Z" fill="#F24E29" stroke="#F24E29" stroke-width="1.5" stroke-linecap="round" stroke-linejoin="round"/>
<path d="M12 17.6688C12.2761 17.6688 12.5 17.4449 12.5 17.1688C12.5 16.8927 12.2761 16.6688 12 16.6688C11.7239 16.6688 11.5 16.8927 11.5 17.1688C11.5 17.4449 11.7239 17.6688 12 17.6688Z" fill="#F24E29" stroke="#F24E29" stroke-width="1.5" stroke-linecap="round" stroke-linejoin="round"/>
<path d="M12 12.6688C12.2761 12.6688 12.5 12.4449 12.5 12.1688C12.5 11.8927 12.2761 11.6688 12 11.6688C11.7239 11.6688 11.5 11.8927 11.5 12.1688C11.5 12.4449 11.7239 12.6688 12 12.6688Z" fill="#F24E29" stroke="#F24E29" stroke-width="1.5" stroke-linecap="round" stroke-linejoin="round"/>
<path d="M12 22.1688C17.5228 22.1688 22 17.6916 22 12.1688C22 6.64597 17.5228 2.16882 12 2.16882C6.47715 2.16882 2 6.64597 2 12.1688C2 17.6916 6.47715 22.1688 12 22.1688Z" stroke="#F24E29" stroke-width="1.5" stroke-linecap="round" stroke-linejoin="round"/>
</svg>
