<svg width="24" height="25" viewBox="0 0 24 25" fill="none" xmlns="http://www.w3.org/2000/svg">
<path d="M12 2.16882C6.47715 2.16882 2 6.64597 2 12.1688C2 17.6916 6.47715 22.1688 12 22.1688C17.5228 22.1688 22 17.6916 22 12.1688C22 6.64597 17.5228 2.16882 12 2.16882Z" stroke="#F24E29" stroke-width="1.5" stroke-linecap="round" stroke-linejoin="round"/>
<path d="M4.271 18.5145C4.271 18.5145 6.50002 15.6688 12 15.6688C17.5 15.6688 19.7291 18.5145 19.7291 18.5145" stroke="#F24E29" stroke-width="1.5" stroke-linecap="round" stroke-linejoin="round"/>
<path d="M12 12.1688C13.6569 12.1688 15 10.8257 15 9.16882C15 7.51197 13.6569 6.16882 12 6.16882C10.3431 6.16882 9 7.51197 9 9.16882C9 10.8257 10.3431 12.1688 12 12.1688Z" stroke="#F24E29" stroke-width="1.5" stroke-linecap="round" stroke-linejoin="round"/>
</svg>
